<?xml version="1.0" encoding="utf-8"?>
<!-- Generator: Adobe Illustrator 23.1.0, SVG Export Plug-In . SVG Version: 6.00 Build 0)  -->
<svg version="1.1" id="Capa_1" xmlns="http://www.w3.org/2000/svg" xmlns:xlink="http://www.w3.org/1999/xlink" x="0px" y="0px"
	 viewBox="0 0 1200 1200" enable-background="new 0 0 1200 1200" xml:space="preserve">
<g>
	<path fill="#9F9E9F" d="M1052.62,980.718c-44.027,54.529-98.92,96.875-163.157,125.87C825.643,1135.393,748.561,1150,660.366,1150
		c-79.153,0-151.56-13.818-215.22-41.069c-63.812-27.303-119.134-65.891-164.428-114.69
		c-45.219-48.687-80.312-107.489-104.296-174.762c-23.764-66.61-35.816-140.201-35.816-218.721c0-79.8,13.482-154.095,40.07-220.821
		c26.7-66.992,64.874-125.596,113.461-174.181c48.579-48.577,107.41-86.867,174.866-113.805
		c66.815-26.676,141.349-40.275,221.557-40.43c124.156-10.992,257.615,38.597,310.906,115.66
		c48.534,70.186,38.256,138.171,36.241,148.85c-7.034,45.314-46.445,70.98-68.741,79.027c-13.862,4.996-29.3-0.609-36.721-13.329
		c-65.317-111.97-243-135.109-361.605-85.848c-35.771,14.857-66.915,36.345-92.561,63.866
		c-25.843,27.736-46.381,62.16-61.044,102.32c-14.838,40.651-22.364,87.316-22.364,138.691c0,53.258,7.529,101.003,22.382,141.904
		c14.712,40.514,34.747,74.899,59.539,102.206c24.524,27.031,53.813,47.998,87.055,62.33
		c33.424,14.417,69.978,21.726,108.651,21.726c24.256,0,46.381-1.326,65.761-3.938c18.728-2.526,36.099-6.538,51.634-11.929
		c15.382-5.324,30.153-12.294,43.911-20.713c13.963-8.539,28.119-19.305,42.082-31.997c6.784-6.117,14.026-11.094,21.615-14.89
		c9.436-4.705,19.685-7.082,30.496-7.082c18.705,0,35.607,7.44,48.881,21.514c0.078,0.086,0.156,0.168,0.235,0.253l74.404,80.722
		C1061.569,951.988,1062.124,968.946,1052.62,980.718z"/>
	<path d="M1028.875,961.542c-41.188,51.012-91.846,90.087-151.966,117.223c-60.135,27.143-132.311,40.711-216.542,40.711
		c-75.35,0-143.085-12.868-203.209-38.606c-60.135-25.731-111.497-61.529-154.071-107.396
		c-42.589-45.856-75.227-100.604-97.918-164.249c-22.703-63.633-34.043-133.123-34.043-208.473
		c0-76.268,12.633-146.108,37.902-209.523c25.269-63.402,60.824-118.033,106.692-163.899
		c45.856-45.856,100.727-81.534,164.603-107.044c63.876-25.5,134.416-38.254,211.628-38.254
		c115.975-10.7,238.952,36.755,284.416,102.502c44.901,64.933,31.265,126.294,31.265,126.294
		c-5.844,39.934-49.024,55.518-49.024,55.518c-75.25-129-272.026-151.668-399.672-98.655
		c-40.007,16.615-74.403,40.361-103.181,71.244c-28.779,30.885-51.239,68.437-67.385,112.66
		c-16.142,44.22-24.215,93.947-24.215,149.157c0,57.095,8.073,107.865,24.215,152.32c16.146,44.459,38.014,81.892,65.63,112.306
		c27.605,30.425,60.124,53.698,97.568,69.84c37.433,16.146,77.671,24.219,120.733,24.219c25.724,0,49.015-1.404,69.84-4.213
		c20.818-2.805,40.011-7.25,57.557-13.337c17.547-6.076,34.154-13.918,49.838-23.515c15.669-9.585,31.234-21.406,46.679-35.447
		c4.672-4.21,9.582-7.6,14.738-10.178c5.141-2.563,10.759-3.859,16.846-3.859c10.289,0,19.178,3.982,26.674,11.932L1028.875,961.542
		z"/>
</g>
</svg>
